<svg width="473" height="126" fill="none" xmlns="http://www.w3.org/2000/svg"><path d="M45.042 25.898l43.925-.017L103.894 0 0 .01l51.947 89.975L66.95 64.024 45.042 25.898zM99.817 25.88h29.923L144.676.01 114.768 0 99.817 25.88zM57.388 99.404l14.95 25.899 51.51-89.218H93.936l-36.548 63.32zM236 .006h-66.51l6.907 12.675h23.464v48.507h12.675V12.68h30.372L236 .006zM297.836 61.193h14.434L280.548 2.997A5.648 5.648 0 00275.559 0a5.647 5.647 0 00-4.988 2.995l-31.718 58.198h14.434l.005-.01h35.378l-6.907-12.674H260.2l15.361-28.186 22.275 40.87zM422.297 0c-10.197 0-18.464 8.27-18.464 18.467S412.1 36.93 422.297 36.93h21.09l-6.907-12.675h-14.183a5.794 5.794 0 01-5.791-5.794 5.788 5.788 0 015.791-5.787h50.394L465.783 0h-43.486z" fill="#0150B5"/><path d="M454.225 24.257h-8.594l6.907 12.674h1.687a5.794 5.794 0 015.792 5.795 5.789 5.789 0 01-5.792 5.787h-48.126l6.907 12.675h41.219c10.198 0 18.465-8.27 18.465-18.467s-8.267-18.464-18.465-18.464zM336.855 36.934h28.139l13.3 24.256 12.697-.005-13.443-24.75c8.144-1.922 14.208-9.233 14.208-17.965 0-10.198-8.267-18.467-18.465-18.467h-35.299l6.908 12.675h28.391a5.788 5.788 0 015.791 5.787 5.794 5.794 0 01-5.791 5.795l-36.446.056-.008-9.601L328.819.002h-4.656v61.168h12.712l-.02-24.237zM287.628 102.735h20.487c1.007 0 1.171.156 1.171 1.085.008 4.482.008 9.081.008 13.57 0 .859-.242 1.101-1.108 1.108-3.451 0-17.037-.031-20.37-.031-1.273 0-1.328-.601-1.328-1.834l.024-12.781c0-.961.148-1.109 1.116-1.117zm33.425-20.643c0-.57-.477-1.03-1.055-1.03h-47.579a.642.642 0 00-.642.642l-.019 5.313c0 .355.288.643.643.643 0 0 7.677-.001 8.029.014.75.024.851.203.515.898-.031.079-9.681 18.746-9.907 19.246h5.293c.624 0 1.132.507 1.132 1.132.007 4.958 0 9.923 0 14.889 0 .796.64 1.436 1.436 1.436 8.807-.015 32.066.141 34.954.071 2.897-.117 4.256-1.96 4.38-5.036.024-7.55-.031-15.381-.031-22.939 0-.702-.554-1.264-1.256-1.264h-30.052c.18-.375 2.725-5.114 3.818-7.277.43-.859.976-1.226 1.96-1.226 8.939.032 27.295.008 27.537.016a.834.834 0 00.859-.843c-.024-1.562 0-3.124-.015-4.685zM441.182 118.487a.642.642 0 00-.643-.642s-2.25.011-2.497.004c-1.104-.027-1.147-.116-1.148-1.235-.001-3.645-.095-22.792-.095-22.792a.643.643 0 00-.643-.642h-19.299a.642.642 0 00-.643.642s-.033 19.326-.065 21.69c-.014 1.031-.357 1.769-1.436 2.104-.345.106-.647.468-.657.828-.058 2.06-.033 4.122-.028 6.184.001.391.32.715.711.712 5.746-.053 9.298-2.616 9.245-11.179-.027-4.499-.032-13.465-.005-13.661.062-.459.339-.723.799-.729 1.104-.013 2.209-.01 3.313.002.403.004.674.187.688.635.009.264.184 18.536.212 20.159-.001 2.886 1.572 4.703 4.377 4.703h7.194c.726.007.626-.714.648-1.485 0-1.449-.028-5.298-.028-5.298zM368.381 110.77c0 .57-.461 1.038-1.039 1.038H342.67c-.57 0-1.038-.468-1.038-1.038v-.43c0-.57.468-1.038 1.038-1.038h24.672c.578 0 1.039.468 1.039 1.038v.43zm0 7.823c0 .57-.461 1.038-1.039 1.038H342.67c-.57 0-1.038-.468-1.038-1.038v-.422c0-.577.468-1.038 1.038-1.038h24.672c.578 0 1.039.461 1.039 1.038v.422zm7.541-14.824c-6.901-.008-34.587-.018-41.528-.018-1.007 0-1.21.203-1.217 1.187-.016 6.425-.032 12.851-.039 19.284-.008 1.124.062 1.187 1.202 1.187 5.153-.016 34.931-.133 37.804-.211 3.162-.086 4.934-1.85 4.957-4.918.032-5.06.047-10.211.047-15.27 0-.763-.195-1.241-1.226-1.241zM229.408 112.04a21937.87 21937.87 0 0029.378-9.766 1.21 1.21 0 00.828-1.159c-.006-1.475-.004-2.95-.047-4.424-.053-1.816-.089-1.887-1.82-1.349-4.316 1.344-23.044 7.494-28.116 9.148-.474.154-.642.341-.642.868.022 1.47.019 4.995.015 6.387 0 .212.202.362.404.295zM404.881 98.559a.985.985 0 01-.984.983h-4.708a.99.99 0 01-.984-.983V89.86a.99.99 0 01.984-.984h4.708c.546 0 .984.445.984.984v8.698zm7.292 1.155c-.406-.328-.82-.742-.82-1.202.008-2.405.042-15.058.042-15.058a.643.643 0 00-.643-.643s-5.061.009-5.762 0c-.234 0-.398-.219-.351-.453l.429-1.936c.065-.307-.187-.555-.492-.555h-7.151a.891.891 0 00-.851.602l-.656 1.912a.636.636 0 01-.594.43h-2.704a.643.643 0 00-.643.642s.007 10.625.021 15.035c0 .859-.273 1.109-1.109 1.086-.795-.04-1.03.171-1.038.991v4.263c.008.585.5 1.085 1.086 1.046.812-.039 1.046.195 1.038.976-.024 1.804-.015 3.623-.101 5.418-.079 2.038-.157 4.068-.391 6.082-.25 2.031-.664 3.896-1.015 5.919-.195 1.163.482 1.076 1.841 1.076h3.325c.702 0 1.275-.483 1.353-1.154.258-2.186.539-4.341.75-6.535 0-.023.008-.055.008-.078l.101-1.179c.125-1.452.188-2.92.188-4.38v-5.021c0-.624.461-1.131 1.022-1.131h4.872c.555 0 1.008.507 1.008 1.131v10.635c0 1.131-.243 1.35-1.367 1.319-.546-.016-.804.133-.906.913-.218 1.648-.358 2.763-.577 4.3-.14.93-.047 1.179.578 1.18 1.269 0 2.839.01 3.904 0 2.156-.021 3.583-.865 4.324-2.981.321-.922.453-1.937.461-2.92.055-4.146.024-8.3.024-12.453 0-.469.336-.867.812-1.187.195-.133.312-.5.312-.765.023-1.499.016-2.998-.016-4.505-.016-.281-.117-.664-.312-.82zM438.56 90.496c1.421 0 1.525-.11 1.52-1.554-.003-.878 0-4.44 0-4.44a.642.642 0 00-.642-.642s-5.943.006-7.748.003c-.557-.001-.84-.474-1.092-.971-.341-.672-.57-1.279-.849-1.988-.25-.635-.55-.945-1.228-.943-.563.001-5.137-.063-7.262-.064-.616 0-.762.241-.609.858.175.706.36 1.41.545 2.115.215.82.1.97-.77.974-2.276.011-4.117.02-6.303.004-.689-.005-.934.243-.939.907-.012 1.52-.016 3.04-.013 4.56.001.652.531 1.18 1.183 1.18 4.09.002 20.16.001 24.207.001z" fill="#0150B5"/><path d="M403.788 115.452v-7.113c0-.056-.009-.102-.019-.157v-.009a.661.661 0 00-.643-.496h-3.153a.658.658 0 00-.661.662v7.113c0 .368.293.662.661.662h3.153a.66.66 0 00.662-.662zM403.919 97.804V90.69c0-.055-.009-.101-.019-.157v-.009a.662.662 0 00-.643-.496h-3.153a.658.658 0 00-.661.662v7.114c0 .368.293.662.661.662h3.153a.66.66 0 00.662-.662zM371.176 96.021c0 .313-.274.57-.617.57h-3.803c-.335 0-.616-.257-.616-.57v-7.823c0-.312.281-.577.616-.577h3.803c.343 0 .617.265.617.577v7.823zm7.057-14.361h-19.128c-.422 0-.765.312-.765.71v19.726c0 .39.344.71.765.71h13.882c3.388.149 6.035-1.967 6.027-6.629V82.37c0-.398-.351-.71-.781-.71zM338.516 102.818a3.802 3.802 0 003.02-1.489l2.55-3.238c.208-.291.574-.467.952-.004l2.3 3.314a3.236 3.236 0 002.681 1.42l7.572-.008-5.665-7.115 4.019-.005c.415 0 .751-.306.751-.684l.012-4.294c0-.486-.415-.882-.948-.9l-5.887.014c-.605 0-1.114-.385-1.114-.995v-.305c.025-.622.551-.877 1.136-.9l5.976-.014c.415 0 .77-.303.77-.697l-.076-4.35c0-.482-.312-.86-.949-.857h-14.709c-.546-.005-.493-.263-.51-.548l-.007-.367c-.003-.43-.154-.674-.662-.674l-6.3.01c-.376 0-.712.215-.83.536l-2.053 6.96 7.385.01c.585.023 1.073.339 1.073.934v.305c0 .61-.514.93-1.125.93l-6.326-.005c-.554 0-1.008.413-1.008.918l.001 4.311c0 .367.329.667.731.667h5.263l-5.664 7.112 7.641.008zM262.071 83.335c0-.714-.578-1.292-1.291-1.292l-16.701.025a.716.716 0 01-.716-.715v-1.72a.843.843 0 00-.844-.844h-7.704a.844.844 0 00-.844.844v1.728a.711.711 0 01-.71.715h-18.327c-.713 0-1.291.578-1.291 1.292v8.993c0 .341.276.618.617.618h7.779c.34 0 .617-.277.617-.618l.003-2.697a.762.762 0 01.76-.745h29.057c.422 0 .763.341.763.763v2.841c0 1.215.394 1.516 1.584 1.313 4.235-1.203 3.089-.875 6.444-1.835.862-.301.805-.727.803-1.307-.003-.708.001-7.36.001-7.36zM260.391 117.947l-33.433.024c-.408.004-.717-.216-.717-.664l.009-20.69c0-.622-.505-1.127-1.127-1.127h-6.19c-.622 0-1.126.505-1.126 1.127 0 0-.06 22.343.188 24.506.367 2.736 2.424 3.633 4.582 3.941 1.04.125 37.814.275 37.814.275.72 0 1.303-.583 1.303-1.303v-4.786c0-.72-.583-1.303-1.303-1.303z" fill="#0150B5"/></svg>